<mxfile host="Electron" agent="Mozilla/5.0 (Windows NT 10.0; Win64; x64) AppleWebKit/537.36 (KHTML, like Gecko) draw.io/28.1.2 Chrome/138.0.7204.243 Electron/37.4.0 Safari/537.36" version="28.1.2">
  <diagram name="Page-1" id="Rg-U9yp07uWxsIHTYrIQ">
    <mxGraphModel dx="2775" dy="1458" grid="1" gridSize="10" guides="1" tooltips="1" connect="1" arrows="1" fold="1" page="1" pageScale="1" pageWidth="827" pageHeight="1169" math="0" shadow="0">
      <root>
        <mxCell id="0" />
        <mxCell id="1" parent="0" />
        <mxCell id="AJbmvsk21nHL86WSzpUr-3" value="" style="whiteSpace=wrap;html=1;aspect=fixed;" vertex="1" parent="1">
          <mxGeometry x="110" y="250" width="329" height="329" as="geometry" />
        </mxCell>
        <mxCell id="AJbmvsk21nHL86WSzpUr-5" value="" style="whiteSpace=wrap;html=1;aspect=fixed;" vertex="1" parent="1">
          <mxGeometry x="439" y="250" width="329" height="329" as="geometry" />
        </mxCell>
        <mxCell id="AJbmvsk21nHL86WSzpUr-6" value="" style="whiteSpace=wrap;html=1;aspect=fixed;" vertex="1" parent="1">
          <mxGeometry x="439" y="579" width="329" height="329" as="geometry" />
        </mxCell>
        <mxCell id="AJbmvsk21nHL86WSzpUr-7" value="" style="whiteSpace=wrap;html=1;aspect=fixed;" vertex="1" parent="1">
          <mxGeometry x="110" y="579" width="329" height="329" as="geometry" />
        </mxCell>
        <mxCell id="AJbmvsk21nHL86WSzpUr-9" value="Effort" style="text;strokeColor=none;fillColor=none;html=1;fontSize=24;fontStyle=1;verticalAlign=middle;align=center;" vertex="1" parent="1">
          <mxGeometry x="390" y="940" width="100" height="40" as="geometry" />
        </mxCell>
        <mxCell id="AJbmvsk21nHL86WSzpUr-11" value="Valeur" style="text;strokeColor=none;fillColor=none;html=1;fontSize=24;fontStyle=1;verticalAlign=middle;align=center;" vertex="1" parent="1">
          <mxGeometry y="585" width="100" height="40" as="geometry" />
        </mxCell>
        <mxCell id="AJbmvsk21nHL86WSzpUr-12" value="" style="shape=singleArrow;whiteSpace=wrap;html=1;" vertex="1" parent="1">
          <mxGeometry x="110" y="890" width="660" height="30" as="geometry" />
        </mxCell>
        <mxCell id="AJbmvsk21nHL86WSzpUr-13" value="" style="shape=singleArrow;whiteSpace=wrap;html=1;rotation=-90;" vertex="1" parent="1">
          <mxGeometry x="-221" y="570" width="660" height="30" as="geometry" />
        </mxCell>
        <mxCell id="AJbmvsk21nHL86WSzpUr-14" value="Se connecter en tant qu&#39;utilisateur" style="rounded=0;whiteSpace=wrap;html=1;" vertex="1" parent="1">
          <mxGeometry x="590" y="290" width="120" height="60" as="geometry" />
        </mxCell>
        <mxCell id="AJbmvsk21nHL86WSzpUr-15" value="Accéder au formulaire" style="rounded=0;whiteSpace=wrap;html=1;" vertex="1" parent="1">
          <mxGeometry x="150" y="470" width="120" height="60" as="geometry" />
        </mxCell>
        <mxCell id="AJbmvsk21nHL86WSzpUr-16" value="Remplir le formulaire" style="rounded=0;whiteSpace=wrap;html=1;" vertex="1" parent="1">
          <mxGeometry x="310" y="384.5" width="120" height="60" as="geometry" />
        </mxCell>
        <mxCell id="AJbmvsk21nHL86WSzpUr-17" value="Confirmer l&#39;envoi du formulaire" style="rounded=0;whiteSpace=wrap;html=1;" vertex="1" parent="1">
          <mxGeometry x="214.5" y="430" width="120" height="60" as="geometry" />
        </mxCell>
        <mxCell id="AJbmvsk21nHL86WSzpUr-18" value="Accéder au profile" style="rounded=0;whiteSpace=wrap;html=1;" vertex="1" parent="1">
          <mxGeometry x="160" y="770" width="120" height="60" as="geometry" />
        </mxCell>
        <mxCell id="AJbmvsk21nHL86WSzpUr-19" value="Visualiser les notifications" style="rounded=0;whiteSpace=wrap;html=1;" vertex="1" parent="1">
          <mxGeometry x="300" y="510" width="120" height="60" as="geometry" />
        </mxCell>
      </root>
    </mxGraphModel>
  </diagram>
</mxfile>
